<?xml version="1.0" encoding="UTF-8"?><svg id="Laag_1" xmlns="http://www.w3.org/2000/svg" viewBox="0 0 576.65 426.12"><defs><style>.cls-1,.cls-2{fill:#e52421;}.cls-3{stroke-width:4px;}.cls-3,.cls-2{stroke:#e52421;stroke-miterlimit:10;}.cls-2{stroke-width:2px;}</style></defs><path class="cls-3" d="M223.26,205.13V121.46h33.58c4.96,0,9.06,.97,12.32,2.91,3.25,1.94,6.04,5.15,8.37,9.65,1.08,2.17,1.94,4.76,2.56,7.78,.62,3.02,.93,7.17,.93,12.43v13.13c0,12.94-1.68,22.08-5.05,27.42-3.36,5.35-9.18,8.68-17.45,9.99l-4.17,.35h-31.08Zm26.18-15.92c5.55,0,8.56-2.75,9.03-8.25l.23-3.37v-29.86l-.24-2.56c-.47-5.19-3.31-7.79-8.52-7.79h-4.49v51.83h3.98Z"/><path class="cls-3" d="M288.33,205.13V121.46h22.19v83.67h-22.19Z"/><path class="cls-3" d="M374.32,151.56h-21.26l-.12-4.53c0-2.94-.08-4.92-.23-5.93-.16-1.01-.45-2.03-.87-3.08-.43-1.05-1.1-1.84-2.03-2.38-.93-.54-1.98-.81-3.14-.81-1.47,0-2.75,.55-3.83,1.63-1.09,1.09-1.74,3.17-1.98,6.23-.23,3.07-.35,10.46-.35,22.18,0,9.08,.12,15.06,.35,17.93s.66,4.93,1.28,6.17c1.08,2.18,2.83,3.26,5.23,3.26,1.47,0,2.75-.55,3.83-1.64,1.08-1.09,1.78-2.59,2.09-4.5,.31-1.91,.46-5.86,.46-11.86v-2.69h21.61v5.01c0,10.18-2.31,17.72-6.93,22.62-4.62,4.9-11.82,7.34-21.6,7.34-2,0-4.12-.12-6.35-.35-8.09-.7-13.78-3.76-17.09-9.19-3.54-5.74-5.31-15.24-5.31-28.51l-.35-3.49v-1.51l.35-13.38c0-9.39,1.93-16.4,5.8-21.06,3.87-4.65,9.97-7.45,18.32-8.38,2.47-.23,4.79-.35,6.96-.35,8.81,0,15.21,2.31,19.19,6.91,3.98,4.61,5.97,11.95,5.97,22.02v2.32Z"/><path class="cls-3" d="M381.76,205.13V121.46h49.27v17.55h-27.07v15.11h25.45v16.73h-25.45v16.73h28v17.55h-50.2Z"/><path class="cls-1" d="M459.43,159.29l-2.39-3.82c-1.75-2.79-2.95-4.82-3.59-6.09-.88-1.67-1.49-3.38-1.85-5.13-.36-1.75-.54-3.34-.54-4.78,0-5.33,1.75-9.83,5.26-13.49,3.51-3.66,8.29-5.81,14.35-6.45,1.91-.24,3.71-.36,5.38-.36,7.57,0,13.51,1.85,17.81,5.56,4.3,3.71,6.46,8.43,6.46,14.17,0,.56-.02,1.18-.06,1.85-.04,.68-.18,1.61-.42,2.81-.48,2.55-1.48,4.94-2.99,7.17-1.51,2.23-4.03,4.82-7.53,7.77l-3.95,3.35,9.68,12.43c.88-1.43,1.53-2.83,1.97-4.18,.44-1.35,.66-2.87,.66-4.54v-1.43h19.25c0,3.99-.6,7.83-1.79,11.54-1.2,3.71-3.15,7.51-5.86,11.42l-2.63,3.23,11.48,15.9h-23.67l-3.95-5.26-3.83,2.23-3.71,1.88c-3.51,1.72-7.17,2.58-11,2.58-2.15,0-4.66-.24-7.53-.72-6.7-1.11-11.88-3.58-15.54-7.4-3.67-3.82-5.5-8.75-5.5-14.8,0-1.83,.04-3.16,.12-4,.08-.84,.42-2.45,1.02-4.84,.6-2.39,1.85-4.93,3.77-7.64,1.91-2.71,4.46-5.14,7.65-7.28,.48-.32,1.03-.62,1.67-.89,.64-.28,1.23-.54,1.79-.78Zm9.8,13.8c-3.19,2.31-4.78,5.1-4.78,8.37,0,1.83,.6,3.59,1.79,5.26,1.91,2.79,4.3,4.19,7.17,4.19,2.23,0,4.66-.96,7.29-2.87l.96-.84-11-14.94-1.43,.84Zm8.89-28.22c1.14-1.27,2.15-2.47,3.05-3.59,.49-.56,.81-1.08,.98-1.55,.16-.48,.24-1.12,.24-1.91,0-1.67-.6-3.11-1.79-4.3-1.2-1.2-2.71-1.79-4.54-1.79s-3.35,.6-4.54,1.79c-1.2,1.2-1.79,2.67-1.79,4.42v1.79l.85,1.55,4.63,6.82,2.93-3.23Z"/><path class="cls-3" d="M223.26,297.58v-83.67h33.58c4.96,0,9.06,.97,12.32,2.91,3.25,1.94,6.04,5.15,8.37,9.65,1.08,2.17,1.94,4.76,2.56,7.78,.62,3.02,.93,7.17,.93,12.43v13.13c0,12.94-1.68,22.08-5.05,27.42-3.36,5.35-9.18,8.68-17.45,9.99l-4.17,.35h-31.08Zm26.18-15.92c5.55,0,8.56-2.75,9.03-8.25l.23-3.37v-29.86l-.24-2.56c-.47-5.19-3.31-7.79-8.52-7.79h-4.49v51.83h3.98Z"/><path class="cls-3" d="M288.33,297.58v-83.67h34.39c4.42,0,7.86,.47,10.34,1.4,2.48,.93,4.8,2.6,6.97,5.01,1.94,2.02,3.31,4.27,4.12,6.76,.81,2.49,1.22,5.6,1.22,9.32,0,5.6-.89,9.87-2.67,12.82s-4.69,5.13-8.71,6.52l-1.74,.47c3.87,.62,7.09,2.59,9.64,5.91,1.08,1.54,1.86,3.03,2.32,4.46,.46,1.43,.7,3.38,.7,5.85v20.28l.46,1.62,.26,.93,.78,2.32h-21.85c-.54-1.23-.91-2.39-1.1-3.47-.19-1.08-.29-2.97-.29-5.68v-17.25c0-5.17-2.36-7.76-7.09-7.76h-5.58v34.16h-22.19Zm26.84-48.34h1.74c3.64-.79,5.81-3.11,6.51-6.98,.23-1.34,.35-2.56,.35-3.67,0-3-.74-5.21-2.21-6.63-1.47-1.42-3.64-2.13-6.51-2.13h-4.53v19.41h4.65Z"/><path class="cls-3" d="M353.29,297.58v-83.67h22.19v83.67h-22.19Z"/><path class="cls-3" d="M384.78,297.58v-83.67h23.82l14.41,50.43v-50.43h19.99v83.67l-23.54,.02-14.59-50.21v50.2h-20.09Z"/><path class="cls-3" d="M452.29,297.58v-83.67h22.19v32.65l15.57-32.65h23.36l-20.92,36.72,24.17,46.95h-24.75l-13.48-29.75-3.95,6.97v22.78h-22.19Z"/><path class="cls-3" d="M517.25,272.14h20.68v2.19c0,6.76,2.25,10.13,6.74,10.13,.31,0,.93-.08,1.86-.23,3.95-.77,5.93-3.56,5.93-8.35,0-2.09-.43-3.85-1.28-5.28-.85-1.43-2.25-2.53-4.18-3.31l-14.64-6.5c-9.69-4.41-14.52-11.91-14.52-22.5,0-7.27,1.8-13.05,5.39-17.34,3.6-4.29,8.91-6.98,15.95-8.06,2.94-.46,5.72-.7,8.35-.7,8.04,0,14.17,2.11,18.38,6.33,4.21,4.22,6.32,10.17,6.32,17.84v1.86h-20.57v-4.18c-.16-2.09-.76-3.72-1.8-4.88s-2.42-1.74-4.13-1.74c-.93,0-1.94,.23-3.02,.7-2.25,1.01-3.37,3.06-3.37,6.15,0,2.24,.45,4.02,1.34,5.34,.89,1.31,2.7,2.63,5.42,3.94l13.76,6.61c5.44,2.71,9.27,5.47,11.48,8.29,2.22,2.82,3.32,6.71,3.32,11.66v3.02c0,.77-.02,1.47-.06,2.09-.04,.62-.21,1.86-.52,3.71-1.24,6.19-3.7,10.83-7.38,13.92-3.68,3.09-9.01,5.03-15.98,5.8-2.48,.23-4.8,.35-6.97,.35-9.06,0-15.79-2.12-20.16-6.36-4.38-4.24-6.57-10.33-6.57-18.28l.23-2.2Z"/><polygon class="cls-3" points="139.56 183.21 105.08 242.94 36.11 242.94 70.59 302.67 36.11 362.4 105.08 362.4 139.56 422.12 174.05 362.4 243.02 362.4 208.53 302.67 139.56 302.67 174.05 242.94 139.56 183.21"/><polygon class="cls-2" points="105.19 240.92 70.7 181.19 1.73 181.19 36.22 121.46 1.73 61.73 70.7 61.73 105.19 2 139.67 61.73 208.64 61.73 174.16 121.46 105.19 121.46 139.67 181.19 105.19 240.92"/></svg>